<?xml version="1.0" encoding="UTF-8" standalone="no"?>
<svg
   xmlns:dc="http://purl.org/dc/elements/1.1/"
   xmlns:cc="http://creativecommons.org/ns#"
   xmlns:rdf="http://www.w3.org/1999/02/22-rdf-syntax-ns#"
   xmlns:svg="http://www.w3.org/2000/svg"
   xmlns="http://www.w3.org/2000/svg"
   width="92.187996mm"
   height="27.102242mm"
   viewBox="0 0 92.187996 27.102242"
   version="1.1"
   id="svg8">
  <defs
     id="defs2">
    <rect
       x="33.966351"
       y="27.173079"
       width="144.69664"
       height="49.930531"
       id="rect835" />
  </defs>
  <metadata
     id="metadata5">
    <rdf:RDF>
      <cc:Work
         rdf:about="">
        <dc:format>image/svg+xml</dc:format>
        <dc:type
           rdf:resource="http://purl.org/dc/dcmitype/StillImage" />
        <dc:title></dc:title>
      </cc:Work>
    </rdf:RDF>
  </metadata>
  <g
     id="layer1"
     transform="translate(-8.8666694,-20.415228)">
    <text
       xml:space="preserve"
       id="text833"
       style="font-style:normal;font-weight:normal;font-size:10.58329999999999949px;line-height:1.25;font-family:sans-serif;white-space:pre;shape-inside:url(#rect835);fill:#000000;fill-opacity:1;stroke:none;"><tspan
         x="33.966797"
         y="36.90087"><tspan
           style="font-style:normal;font-variant:normal;font-weight:normal;font-stretch:normal;font-size:10.5833px;font-family:Montserrat;-inkscape-font-specification:'Montserrat, Normal';font-variant-ligatures:normal;font-variant-caps:normal;font-variant-numeric:normal;font-variant-east-asian:normal">Docudio Lab</tspan></tspan></text>
    <g
       id="g848"
       transform="matrix(0.12362298,0,0,0.13551121,8.8666694,20.415228)">
      <rect
         id="rect2"
         fill="#f9f9f9"
         height="200"
         width="200"
         x="0"
         y="0" />
      <path
         id="path4"
         d="M 100.01,40 99.988,40.01 C 99.766,40.013 99.523,40.021 99.449,40.027 99.376,40.034 99.151,40.062 98.949,40.09 98.748,40.118 98.427,40.18 98.236,40.227 98.046,40.273 97.717,40.37 97.504,40.443 97.291,40.516 96.905,40.678 96.648,40.803 96.392,40.928 96.022,41.137 95.824,41.268 95.627,41.398 95.258,41.66 95.006,41.85 94.754,42.039 94.362,42.319 94.133,42.473 93.904,42.626 93.505,42.876 93.248,43.029 92.991,43.182 92.565,43.418 92.299,43.553 92.033,43.687 91.606,43.889 91.35,43.998 91.093,44.108 90.658,44.274 90.383,44.369 90.108,44.464 89.688,44.594 89.449,44.656 89.211,44.719 88.835,44.807 88.615,44.852 88.396,44.896 88.051,44.956 87.85,44.984 87.648,45.013 87.302,45.053 87.082,45.072 86.862,45.092 86.33,45.107 85.898,45.107 85.468,45.108 84.943,45.091 84.732,45.072 84.522,45.053 84.176,45.014 83.965,44.986 83.754,44.958 83.343,44.89 83.049,44.834 82.756,44.778 82.223,44.661 81.865,44.572 81.507,44.484 81.041,44.385 80.83,44.352 80.553,44.308 80.255,44.291 79.748,44.291 79.235,44.291 78.95,44.307 78.682,44.35 78.48,44.382 78.136,44.453 77.918,44.508 77.7,44.562 77.377,44.66 77.201,44.725 77.025,44.789 76.686,44.938 76.447,45.055 76.209,45.171 75.833,45.385 75.613,45.531 75.393,45.678 75.07,45.917 74.895,46.064 74.719,46.211 74.431,46.485 74.252,46.674 74.073,46.862 73.811,47.172 73.67,47.359 73.529,47.547 73.338,47.826 73.244,47.979 73.15,48.131 72.972,48.428 72.848,48.639 72.723,48.849 72.486,49.225 72.32,49.473 72.155,49.72 71.89,50.094 71.729,50.305 71.568,50.515 71.264,50.885 71.055,51.123 70.845,51.361 70.511,51.714 70.311,51.906 70.111,52.099 69.811,52.368 69.646,52.508 69.481,52.647 69.167,52.894 68.947,53.057 68.728,53.22 68.346,53.478 68.098,53.631 67.849,53.784 67.43,54.02 67.164,54.154 66.898,54.289 66.499,54.474 66.279,54.566 66.059,54.659 65.638,54.816 65.344,54.916 65.049,55.016 64.57,55.16 64.277,55.234 63.985,55.309 63.551,55.406 63.312,55.451 63.074,55.497 62.663,55.567 62.396,55.605 62.131,55.645 61.778,55.706 61.613,55.742 61.448,55.779 61.111,55.877 60.863,55.959 60.616,56.041 60.202,56.211 59.945,56.338 59.689,56.465 59.33,56.669 59.146,56.791 58.963,56.913 58.708,57.097 58.58,57.199 58.452,57.301 58.19,57.536 58,57.721 57.81,57.905 57.547,58.184 57.416,58.34 57.285,58.496 57.095,58.744 56.992,58.891 56.889,59.037 56.712,59.319 56.598,59.518 56.484,59.716 56.323,60.028 56.242,60.211 56.161,60.394 56.034,60.719 55.961,60.932 55.887,61.145 55.797,61.439 55.76,61.586 55.722,61.732 55.632,62.202 55.561,62.629 55.489,63.057 55.377,63.651 55.311,63.949 55.244,64.247 55.117,64.73 55.027,65.023 54.938,65.317 54.799,65.73 54.719,65.941 54.638,66.152 54.523,66.437 54.463,66.574 54.403,66.712 54.25,67.029 54.123,67.279 53.997,67.53 53.796,67.898 53.676,68.096 53.556,68.294 53.358,68.596 53.238,68.768 53.119,68.939 52.905,69.225 52.764,69.402 52.622,69.58 52.347,69.9 52.152,70.113 51.957,70.327 51.629,70.653 51.426,70.838 51.222,71.023 50.899,71.299 50.707,71.453 50.515,71.607 50.19,71.853 49.984,72 49.779,72.146 49.467,72.358 49.291,72.469 49.115,72.58 48.754,72.793 48.49,72.943 48.227,73.094 47.87,73.314 47.695,73.434 47.521,73.553 47.267,73.744 47.129,73.855 46.992,73.967 46.735,74.201 46.561,74.375 46.385,74.551 46.128,74.835 45.988,75.01 45.849,75.184 45.627,75.491 45.496,75.693 45.365,75.895 45.17,76.241 45.062,76.461 44.956,76.681 44.814,77.006 44.748,77.184 44.682,77.361 44.584,77.667 44.529,77.865 44.475,78.064 44.405,78.361 44.377,78.525 44.349,78.689 44.31,79.004 44.289,79.225 44.268,79.454 44.262,79.827 44.273,80.094 44.285,80.35 44.318,80.703 44.346,80.877 44.374,81.051 44.476,81.531 44.576,81.943 44.675,82.356 44.795,82.897 44.84,83.145 44.885,83.392 44.954,83.842 44.992,84.145 45.03,84.447 45.072,84.956 45.086,85.277 45.099,85.598 45.101,86.161 45.088,86.527 45.075,86.894 45.041,87.386 45.012,87.619 44.982,87.852 44.922,88.243 44.877,88.488 44.832,88.733 44.749,89.114 44.693,89.332 44.637,89.55 44.508,89.974 44.408,90.275 44.308,90.576 44.133,91.039 44.02,91.307 43.906,91.574 43.699,92.018 43.559,92.293 43.419,92.569 43.201,92.967 43.076,93.178 42.951,93.388 42.699,93.787 42.516,94.062 42.333,94.338 41.984,94.825 41.74,95.148 41.497,95.471 41.228,95.847 41.141,95.982 41.054,96.118 40.903,96.381 40.807,96.568 40.711,96.755 40.569,97.072 40.492,97.27 40.416,97.467 40.304,97.823 40.242,98.062 40.181,98.302 40.103,98.671 40.07,98.881 40.027,99.158 40.012,99.455 40.012,99.963 40.012,100.47 40.028,100.77 40.07,101.04 40.103,101.26 40.168,101.59 40.215,101.78 40.261,101.97 40.358,102.29 40.432,102.51 40.505,102.72 40.651,103.08 40.756,103.3 40.861,103.52 41.035,103.84 41.141,104.01 41.247,104.19 41.525,104.58 41.758,104.9 41.991,105.21 42.305,105.65 42.457,105.88 42.609,106.1 42.837,106.46 42.967,106.68 43.096,106.89 43.334,107.32 43.496,107.63 43.657,107.94 43.879,108.41 43.988,108.67 44.097,108.92 44.265,109.36 44.359,109.63 44.454,109.91 44.582,110.32 44.645,110.56 44.708,110.8 44.796,111.18 44.84,111.4 44.885,111.62 44.944,111.96 44.973,112.16 45.001,112.37 45.041,112.71 45.061,112.93 45.08,113.15 45.095,113.68 45.096,114.11 45.096,114.54 45.081,115.08 45.061,115.3 45.04,115.52 44.993,115.91 44.957,116.17 44.921,116.44 44.848,116.86 44.795,117.12 44.742,117.39 44.631,117.87 44.549,118.2 44.466,118.53 44.373,118.97 44.34,119.18 44.296,119.47 44.281,119.75 44.281,120.28 44.282,120.86 44.296,121.08 44.354,121.41 44.393,121.64 44.463,121.98 44.51,122.16 44.557,122.34 44.648,122.63 44.713,122.81 44.778,122.99 44.927,123.33 45.043,123.56 45.159,123.8 45.373,124.18 45.52,124.4 45.666,124.62 45.908,124.94 46.055,125.12 46.202,125.29 46.476,125.58 46.664,125.76 46.852,125.94 47.16,126.2 47.348,126.34 47.536,126.48 47.814,126.68 47.967,126.77 48.12,126.86 48.416,127.04 48.627,127.16 48.838,127.29 49.176,127.5 49.379,127.63 49.582,127.77 49.904,127.99 50.096,128.13 50.287,128.27 50.617,128.54 50.828,128.71 51.039,128.89 51.443,129.26 51.729,129.55 52.014,129.83 52.361,130.2 52.498,130.37 52.635,130.53 52.839,130.78 52.949,130.93 53.06,131.08 53.254,131.36 53.383,131.55 53.511,131.74 53.695,132.03 53.791,132.2 53.887,132.36 54.06,132.68 54.178,132.92 54.295,133.15 54.469,133.53 54.564,133.75 54.66,133.98 54.824,134.43 54.93,134.75 55.036,135.07 55.171,135.52 55.229,135.75 55.286,135.98 55.368,136.34 55.412,136.55 55.456,136.77 55.529,137.2 55.576,137.52 55.623,137.83 55.693,138.23 55.73,138.39 55.767,138.56 55.865,138.9 55.947,139.15 56.03,139.4 56.199,139.81 56.326,140.07 56.453,140.32 56.657,140.68 56.779,140.87 56.902,141.05 57.085,141.31 57.188,141.43 57.289,141.56 57.524,141.82 57.709,142.01 57.894,142.2 58.172,142.47 58.328,142.6 58.484,142.73 58.732,142.92 58.879,143.02 59.026,143.12 59.307,143.3 59.506,143.42 59.705,143.53 60.017,143.69 60.201,143.77 60.386,143.85 60.726,143.99 60.957,144.06 61.188,144.14 61.513,144.24 61.678,144.28 61.843,144.32 62.257,144.39 62.596,144.45 62.935,144.5 63.4,144.59 63.629,144.63 63.858,144.68 64.241,144.77 64.48,144.83 64.72,144.9 65.098,145.01 65.318,145.08 65.539,145.15 65.92,145.29 66.166,145.39 66.411,145.48 66.898,145.7 67.246,145.88 67.594,146.06 68.062,146.32 68.285,146.46 68.509,146.6 68.867,146.85 69.084,147.01 69.301,147.18 69.614,147.43 69.779,147.57 69.944,147.71 70.268,148.02 70.498,148.25 70.728,148.48 71.065,148.85 71.248,149.07 71.431,149.29 71.703,149.64 71.855,149.84 72.008,150.05 72.251,150.4 72.395,150.63 72.538,150.85 72.778,151.25 72.93,151.52 73.081,151.78 73.282,152.11 73.373,152.25 73.465,152.39 73.652,152.64 73.791,152.82 73.93,152.99 74.191,153.28 74.371,153.46 74.551,153.64 74.845,153.9 75.023,154.04 75.201,154.18 75.492,154.39 75.67,154.51 75.848,154.62 76.151,154.8 76.344,154.9 76.536,155 76.851,155.14 77.043,155.21 77.235,155.29 77.57,155.4 77.787,155.46 78.003,155.53 78.322,155.6 78.496,155.63 78.67,155.66 78.993,155.7 79.213,155.72 79.441,155.74 79.815,155.75 80.084,155.74 80.343,155.73 80.73,155.69 80.941,155.65 81.153,155.62 81.539,155.53 81.799,155.47 82.059,155.4 82.439,155.31 82.643,155.27 82.846,155.23 83.201,155.16 83.43,155.12 83.659,155.08 84.043,155.03 84.281,155 84.52,154.97 84.977,154.94 85.299,154.92 85.621,154.91 86.177,154.91 86.533,154.92 86.89,154.94 87.384,154.97 87.631,155 87.879,155.03 88.305,155.1 88.58,155.15 88.855,155.21 89.274,155.31 89.51,155.37 89.746,155.44 90.158,155.57 90.426,155.66 90.693,155.75 91.071,155.89 91.264,155.97 91.457,156.06 91.84,156.23 92.115,156.37 92.39,156.5 92.825,156.74 93.082,156.89 93.339,157.04 93.76,157.3 94.02,157.47 94.279,157.64 94.772,157.99 95.113,158.25 95.455,158.51 95.842,158.79 95.975,158.88 96.107,158.96 96.369,159.11 96.557,159.21 96.744,159.3 97.058,159.44 97.256,159.52 97.454,159.59 97.812,159.71 98.051,159.77 98.29,159.83 98.657,159.91 98.867,159.94 99.139,159.98 99.445,160 99.932,160 100.32,160 100.75,159.98 100.93,159.96 101.11,159.93 101.35,159.89 101.48,159.87 101.61,159.84 101.86,159.78 102.03,159.73 102.21,159.68 102.51,159.58 102.71,159.5 102.92,159.42 103.24,159.28 103.43,159.19 103.62,159.09 103.9,158.94 104.04,158.84 104.19,158.75 104.58,158.48 104.9,158.24 105.22,158 105.71,157.65 106,157.47 106.28,157.28 106.72,157.01 106.96,156.87 107.21,156.73 107.6,156.52 107.83,156.4 108.07,156.29 108.46,156.1 108.7,156 108.95,155.9 109.41,155.72 109.73,155.62 110.05,155.51 110.47,155.38 110.67,155.33 110.86,155.29 111.19,155.21 111.4,155.17 111.61,155.12 111.95,155.07 112.15,155.04 112.35,155.01 112.69,154.97 112.9,154.95 113.11,154.93 113.64,154.91 114.08,154.91 114.52,154.91 115.06,154.93 115.27,154.95 115.48,154.97 115.78,155 115.93,155.02 116.09,155.04 116.39,155.08 116.6,155.12 116.81,155.15 117.12,155.21 117.29,155.25 117.46,155.29 117.86,155.38 118.2,155.47 118.53,155.55 118.98,155.64 119.19,155.67 119.47,155.72 119.78,155.73 120.29,155.73 120.84,155.73 121.07,155.71 121.4,155.66 121.63,155.62 121.97,155.55 122.15,155.5 122.33,155.45 122.62,155.36 122.8,155.3 122.97,155.23 123.31,155.08 123.55,154.97 123.79,154.85 124.14,154.65 124.33,154.53 124.53,154.4 124.83,154.17 125.02,154.03 125.2,153.88 125.52,153.59 125.71,153.38 125.91,153.18 126.18,152.86 126.33,152.67 126.47,152.48 126.66,152.2 126.76,152.04 126.85,151.89 127.03,151.6 127.15,151.38 127.27,151.17 127.49,150.84 127.62,150.63 127.75,150.43 127.98,150.11 128.12,149.92 128.26,149.72 128.52,149.4 128.68,149.2 128.85,149 129.15,148.67 129.35,148.46 129.55,148.26 129.88,147.94 130.08,147.76 130.28,147.57 130.6,147.31 130.79,147.17 130.97,147.02 131.29,146.79 131.5,146.65 131.71,146.51 132.03,146.31 132.21,146.2 132.4,146.09 132.79,145.89 133.08,145.75 133.38,145.61 133.79,145.42 134,145.34 134.21,145.26 134.6,145.12 134.87,145.04 135.13,144.95 135.53,144.84 135.74,144.78 135.95,144.73 136.35,144.64 136.62,144.59 136.9,144.53 137.29,144.47 137.5,144.44 137.71,144.41 138.04,144.35 138.24,144.31 138.43,144.27 138.81,144.17 139.08,144.08 139.36,143.99 139.78,143.82 140.02,143.7 140.26,143.59 140.57,143.42 140.7,143.33 140.84,143.24 141.1,143.07 141.27,142.94 141.44,142.81 141.76,142.54 141.97,142.33 142.18,142.13 142.45,141.84 142.58,141.68 142.71,141.53 142.9,141.28 143.01,141.13 143.11,140.99 143.29,140.7 143.4,140.51 143.52,140.31 143.68,139.99 143.76,139.81 143.84,139.62 143.97,139.28 144.05,139.05 144.13,138.82 144.23,138.5 144.26,138.33 144.3,138.17 144.38,137.76 144.43,137.42 144.49,137.08 144.57,136.61 144.62,136.38 144.67,136.15 144.76,135.77 144.82,135.53 144.88,135.29 144.99,134.92 145.06,134.7 145.14,134.47 145.28,134.09 145.37,133.85 145.47,133.61 145.68,133.15 145.84,132.82 146,132.5 146.25,132.04 146.4,131.81 146.55,131.57 146.78,131.23 146.92,131.04 147.05,130.85 147.26,130.58 147.39,130.43 147.51,130.28 147.77,130 147.96,129.79 148.15,129.58 148.51,129.24 148.75,129.03 148.99,128.82 149.41,128.47 149.69,128.27 149.96,128.06 150.37,127.77 150.6,127.62 150.83,127.48 151.24,127.23 151.5,127.08 151.77,126.93 152.1,126.73 152.24,126.64 152.38,126.55 152.63,126.36 152.8,126.22 152.98,126.08 153.26,125.82 153.44,125.65 153.61,125.47 153.88,125.18 154.02,125 154.17,124.81 154.38,124.52 154.5,124.34 154.61,124.16 154.79,123.86 154.88,123.67 154.98,123.48 155.13,123.16 155.2,122.97 155.28,122.78 155.39,122.44 155.45,122.22 155.51,122.01 155.59,121.69 155.62,121.51 155.65,121.34 155.69,121.02 155.71,120.8 155.73,120.57 155.74,120.2 155.73,119.93 155.72,119.67 155.68,119.32 155.65,119.15 155.63,118.97 155.52,118.49 155.42,118.08 155.32,117.67 155.2,117.13 155.16,116.88 155.11,116.63 155.04,116.18 155.01,115.87 154.97,115.56 154.92,115.05 154.91,114.72 154.9,114.39 154.89,113.84 154.91,113.48 154.92,113.12 154.96,112.64 154.99,112.41 155.02,112.17 155.08,111.78 155.12,111.54 155.17,111.29 155.25,110.91 155.3,110.69 155.36,110.48 155.5,110.03 155.6,109.71 155.71,109.39 155.87,108.97 155.96,108.76 156.04,108.56 156.22,108.17 156.36,107.9 156.49,107.62 156.73,107.19 156.88,106.93 157.03,106.67 157.3,106.24 157.48,105.96 157.66,105.69 158.02,105.19 158.27,104.87 158.51,104.54 158.79,104.15 158.88,104 158.97,103.85 159.14,103.54 159.26,103.3 159.37,103.06 159.52,102.71 159.58,102.53 159.65,102.34 159.74,102.03 159.78,101.84 159.83,101.65 159.9,101.32 159.93,101.11 159.97,100.83 159.99,100.53 159.99,100.01 159.99,99.491 159.97,99.19 159.93,98.912 159.9,98.701 159.83,98.373 159.78,98.182 159.74,97.991 159.65,97.683 159.58,97.498 159.52,97.313 159.37,96.967 159.26,96.729 159.14,96.49 158.97,96.175 158.88,96.027 158.79,95.88 158.51,95.49 158.27,95.16 158.02,94.831 157.69,94.375 157.54,94.148 157.39,93.922 157.16,93.563 157.03,93.35 156.9,93.137 156.66,92.706 156.5,92.395 156.34,92.083 156.12,91.616 156.01,91.357 155.9,91.099 155.73,90.664 155.64,90.391 155.54,90.117 155.42,89.699 155.35,89.461 155.29,89.223 155.2,88.847 155.16,88.627 155.11,88.407 155.05,88.063 155.03,87.861 155,87.66 154.96,87.322 154.94,87.111 154.92,86.901 154.9,86.368 154.9,85.928 154.9,85.488 154.92,84.955 154.94,84.744 154.96,84.533 154.99,84.234 155.01,84.078 155.03,83.922 155.08,83.579 155.12,83.316 155.17,83.053 155.29,82.468 155.4,82.016 155.51,81.564 155.63,81.028 155.66,80.826 155.7,80.568 155.72,80.248 155.72,79.744 155.72,79.164 155.7,78.947 155.64,78.609 155.61,78.38 155.54,78.046 155.49,77.865 155.44,77.684 155.35,77.392 155.29,77.215 155.22,77.038 155.09,76.729 154.99,76.527 154.89,76.326 154.73,76.017 154.62,75.844 154.51,75.67 154.31,75.382 154.18,75.203 154.04,75.024 153.77,74.711 153.58,74.508 153.39,74.304 153.08,74.02 152.9,73.875 152.72,73.73 152.44,73.523 152.28,73.416 152.12,73.309 151.76,73.087 151.49,72.926 151.21,72.764 150.81,72.514 150.59,72.367 150.37,72.221 150.05,71.994 149.87,71.865 149.7,71.736 149.38,71.488 149.17,71.312 148.96,71.137 148.55,70.761 148.27,70.477 147.98,70.192 147.64,69.823 147.5,69.658 147.36,69.493 147.16,69.238 147.05,69.092 146.94,68.945 146.74,68.669 146.62,68.477 146.49,68.284 146.3,67.993 146.21,67.83 146.11,67.667 145.94,67.343 145.82,67.109 145.7,66.876 145.53,66.505 145.44,66.287 145.35,66.069 145.19,65.653 145.09,65.359 144.99,65.066 144.86,64.614 144.79,64.355 144.72,64.097 144.63,63.705 144.59,63.484 144.54,63.264 144.47,62.823 144.42,62.508 144.37,62.193 144.31,61.799 144.27,61.631 144.23,61.463 144.13,61.122 144.05,60.875 143.97,60.627 143.81,60.231 143.69,59.992 143.57,59.754 143.36,59.378 143.21,59.158 143.07,58.938 142.84,58.622 142.7,58.457 142.56,58.292 142.3,58.012 142.12,57.834 141.93,57.656 141.63,57.39 141.45,57.244 141.26,57.098 140.96,56.892 140.79,56.787 140.63,56.682 140.32,56.512 140.12,56.408 139.92,56.305 139.61,56.168 139.44,56.102 139.26,56.036 139,55.943 138.85,55.896 138.71,55.85 138.49,55.787 138.38,55.758 138.26,55.728 137.81,55.646 137.38,55.574 136.95,55.503 136.36,55.39 136.07,55.324 135.77,55.259 135.32,55.139 135.06,55.059 134.8,54.979 134.42,54.856 134.22,54.783 134.02,54.711 133.7,54.586 133.52,54.508 133.34,54.429 133.01,54.278 132.79,54.17 132.58,54.062 132.23,53.874 132.03,53.752 131.82,53.63 131.51,53.434 131.34,53.314 131.16,53.195 130.89,52.997 130.74,52.877 130.58,52.756 130.25,52.482 130.01,52.266 129.77,52.049 129.43,51.719 129.26,51.531 129.08,51.344 128.85,51.079 128.73,50.941 128.62,50.804 128.37,50.482 128.18,50.227 127.99,49.972 127.72,49.589 127.59,49.377 127.45,49.165 127.22,48.773 127.07,48.508 126.92,48.242 126.72,47.911 126.62,47.773 126.53,47.636 126.34,47.381 126.21,47.207 126.07,47.033 125.81,46.747 125.64,46.572 125.46,46.398 125.18,46.141 125,46.002 124.83,45.863 124.57,45.674 124.44,45.582 124.3,45.49 124.05,45.341 123.88,45.248 123.72,45.155 123.44,45.017 123.27,44.941 123.1,44.865 122.79,44.745 122.58,44.674 122.38,44.603 122.04,44.506 121.83,44.461 121.62,44.415 121.32,44.358 121.15,44.334 120.97,44.308 120.58,44.292 120.17,44.293 119.69,44.295 119.38,44.312 119.15,44.352 118.97,44.383 118.48,44.491 118.07,44.59 117.66,44.689 117.11,44.808 116.87,44.854 116.62,44.899 116.17,44.966 115.87,45.004 115.56,45.042 115.05,45.085 114.72,45.1 114.39,45.114 113.82,45.116 113.47,45.102 113.14,45.077 112.65,45.043 112.42,45.014 112.18,44.985 111.79,44.924 111.55,44.879 111.3,44.834 110.93,44.752 110.71,44.697 110.5,44.642 110.14,44.535 109.9,44.459 109.67,44.383 109.29,44.248 109.07,44.158 108.84,44.068 108.48,43.911 108.26,43.811 108.04,43.71 107.68,43.528 107.45,43.406 107.23,43.284 106.89,43.095 106.71,42.984 106.52,42.874 106.18,42.651 105.92,42.486 105.68,42.322 105.17,41.958 104.8,41.68 104.43,41.401 103.96,41.081 103.76,40.967 103.56,40.852 103.22,40.683 103,40.59 102.78,40.497 102.43,40.371 102.22,40.309 102,40.247 101.66,40.166 101.46,40.129 101.27,40.092 100.95,40.046 100.76,40.027 100.57,40.009 100.23,39.997 100.01,40 Z M 91.725,64.727 116.06,64.73 116.39,64.773 C 116.57,64.798 116.88,64.85 117.07,64.889 117.27,64.928 117.56,64.997 117.72,65.043 117.88,65.089 118.15,65.179 118.33,65.242 118.5,65.305 118.78,65.418 118.94,65.494 119.1,65.57 119.34,65.69 119.47,65.762 119.61,65.834 119.89,66.006 120.1,66.145 120.31,66.283 120.58,66.48 120.71,66.582 120.83,66.684 121.06,66.881 121.21,67.018 121.35,67.154 121.58,67.387 121.71,67.535 121.85,67.683 122.06,67.946 122.2,68.121 122.33,68.296 122.52,68.57 122.62,68.73 122.72,68.891 122.86,69.138 122.93,69.279 123.01,69.42 123.13,69.677 123.21,69.852 123.28,70.026 123.4,70.329 123.46,70.523 123.53,70.718 123.61,70.987 123.64,71.121 123.68,71.255 123.73,71.48 123.75,71.621 123.78,71.762 123.82,72.002 123.85,72.156 L 123.89,72.438 V 99.568 L 123.9,126.7 H 137.11 L 137.3,126.75 C 137.4,126.77 137.55,126.83 137.63,126.88 137.7,126.92 137.83,127.01 137.9,127.09 137.98,127.16 138.07,127.29 138.12,127.36 138.16,127.44 138.22,127.59 138.25,127.7 138.29,127.89 138.29,127.95 138.28,128.31 138.27,128.53 138.25,128.81 138.24,128.93 138.23,129.05 138.19,129.28 138.17,129.45 138.14,129.61 138.08,129.88 138.04,130.04 138.01,130.2 137.93,130.47 137.88,130.64 137.82,130.81 137.72,131.07 137.66,131.23 137.59,131.39 137.47,131.66 137.38,131.83 137.3,131.99 137.17,132.24 137.09,132.37 137.01,132.51 136.87,132.72 136.78,132.85 136.69,132.97 136.51,133.21 136.38,133.38 136.25,133.54 135.99,133.82 135.82,134 135.64,134.18 135.4,134.41 135.28,134.51 135.16,134.61 134.95,134.77 134.81,134.87 134.68,134.97 134.43,135.14 134.27,135.24 134.1,135.35 133.78,135.53 133.56,135.64 133.34,135.75 133,135.89 132.82,135.96 132.64,136.03 132.34,136.13 132.16,136.19 131.98,136.24 131.69,136.31 131.53,136.34 131.36,136.38 131.11,136.42 130.97,136.44 130.83,136.46 130.54,136.49 130.33,136.51 130.05,136.52 122.92,136.53 105.7,136.52 H 81.467 L 81.162,136.47 C 80.995,136.45 80.736,136.41 80.588,136.38 80.44,136.36 80.21,136.31 80.076,136.27 79.942,136.24 79.712,136.17 79.564,136.12 79.417,136.08 79.158,135.98 78.99,135.92 78.823,135.85 78.5,135.7 78.271,135.58 78.043,135.47 77.682,135.25 77.467,135.11 77.252,134.97 76.956,134.75 76.809,134.64 76.661,134.52 76.369,134.25 76.16,134.04 75.951,133.83 75.682,133.54 75.562,133.39 75.443,133.25 75.273,133.02 75.186,132.9 75.098,132.78 74.952,132.55 74.861,132.4 74.77,132.25 74.638,132.01 74.566,131.87 74.494,131.73 74.383,131.49 74.32,131.35 74.257,131.2 74.158,130.94 74.1,130.77 74.041,130.59 73.949,130.28 73.896,130.07 73.844,129.86 73.777,129.55 73.75,129.37 73.723,129.2 73.688,128.93 73.674,128.77 73.656,128.58 73.649,120.03 73.648,101.52 V 74.549 H 60.438 L 60.248,74.5 C 60.144,74.473 59.996,74.416 59.92,74.373 59.844,74.33 59.721,74.233 59.646,74.158 59.572,74.084 59.477,73.961 59.434,73.885 59.39,73.809 59.331,73.655 59.303,73.543 59.256,73.361 59.253,73.298 59.268,72.938 59.276,72.716 59.292,72.437 59.307,72.316 59.321,72.196 59.356,71.961 59.383,71.797 59.41,71.632 59.465,71.368 59.504,71.207 59.543,71.046 59.619,70.777 59.674,70.609 59.728,70.442 59.829,70.17 59.896,70.006 59.964,69.842 60.094,69.558 60.188,69.375 60.28,69.192 60.441,68.906 60.545,68.74 60.649,68.574 60.817,68.327 60.916,68.193 61.015,68.059 61.18,67.851 61.281,67.73 61.382,67.61 61.604,67.372 61.773,67.203 61.943,67.034 62.205,66.795 62.355,66.672 62.506,66.549 62.735,66.374 62.865,66.281 62.995,66.189 63.222,66.039 63.369,65.949 63.517,65.86 63.825,65.696 64.053,65.584 64.281,65.472 64.614,65.325 64.795,65.258 64.976,65.191 65.242,65.102 65.387,65.061 65.531,65.019 65.768,64.958 65.912,64.926 66.056,64.894 66.328,64.845 66.516,64.816 66.703,64.788 66.977,64.755 67.125,64.744 67.273,64.733 78.342,64.725 91.725,64.727 Z M 109.24,67.352 88.355,67.355 C 76.867,67.357 67.365,67.368 67.242,67.379 67.119,67.39 66.916,67.416 66.791,67.438 66.666,67.459 66.459,67.503 66.33,67.535 66.202,67.568 65.985,67.634 65.85,67.682 65.714,67.729 65.502,67.812 65.377,67.867 65.252,67.922 65.05,68.022 64.93,68.09 64.809,68.158 64.601,68.288 64.467,68.379 64.333,68.47 64.117,68.631 63.988,68.738 63.86,68.845 63.651,69.043 63.523,69.178 63.396,69.312 63.207,69.533 63.104,69.668 63,69.803 62.838,70.041 62.742,70.199 62.646,70.357 62.518,70.591 62.459,70.719 62.4,70.846 62.315,71.044 62.271,71.158 62.228,71.272 62.161,71.47 62.125,71.598 62.089,71.725 62.053,71.848 62.047,71.871 L 62.037,71.914 H 106.99 L 107.01,71.871 C 107.01,71.848 107.03,71.757 107.04,71.67 107.06,71.583 107.1,71.397 107.13,71.256 107.17,71.115 107.24,70.856 107.29,70.682 107.35,70.507 107.45,70.228 107.51,70.061 107.58,69.893 107.72,69.596 107.82,69.4 107.91,69.205 108.08,68.902 108.19,68.729 108.3,68.555 108.48,68.289 108.6,68.137 108.71,67.985 108.88,67.772 108.98,67.664 109.07,67.556 109.17,67.442 109.2,67.41 Z M 115.52,67.365 115.53,67.371 C 115.28,67.365 114.99,67.372 114.88,67.383 114.76,67.395 114.56,67.421 114.43,67.443 114.29,67.466 114.08,67.51 113.96,67.541 113.84,67.573 113.64,67.632 113.52,67.672 113.4,67.712 113.21,67.785 113.1,67.834 112.98,67.883 112.79,67.977 112.66,68.045 112.53,68.113 112.33,68.229 112.22,68.303 112.11,68.377 111.93,68.501 111.83,68.578 111.73,68.655 111.56,68.802 111.45,68.904 111.33,69.006 111.16,69.18 111.06,69.291 110.96,69.402 110.79,69.597 110.7,69.725 110.6,69.852 110.45,70.07 110.37,70.211 110.28,70.352 110.16,70.579 110.1,70.713 110.04,70.847 109.94,71.062 109.89,71.191 109.85,71.32 109.77,71.572 109.72,71.752 109.67,71.931 109.62,72.183 109.6,72.311 109.58,72.438 109.55,72.752 109.54,73.01 109.52,73.35 109.5,73.52 109.46,73.633 109.44,73.718 109.37,73.854 109.32,73.934 109.27,74.013 109.17,74.134 109.09,74.203 109.02,74.272 108.89,74.364 108.8,74.406 108.72,74.449 108.58,74.501 108.49,74.52 108.35,74.55 105.96,74.552 92.307,74.553 H 76.287 V 101.48 C 76.287,120.19 76.295,128.48 76.312,128.65 76.327,128.78 76.366,129.02 76.398,129.18 76.431,129.35 76.514,129.65 76.582,129.86 76.655,130.08 76.781,130.39 76.885,130.6 76.982,130.79 77.141,131.08 77.238,131.22 77.335,131.37 77.474,131.57 77.549,131.66 77.623,131.76 77.84,131.99 78.029,132.18 78.218,132.37 78.49,132.61 78.633,132.71 78.776,132.82 79.011,132.98 79.156,133.06 79.302,133.15 79.559,133.29 79.727,133.36 79.894,133.44 80.129,133.53 80.25,133.57 80.371,133.62 80.576,133.68 80.703,133.71 80.83,133.74 81.039,133.79 81.166,133.81 81.293,133.83 81.518,133.86 81.666,133.87 81.846,133.89 88.811,133.89 102.79,133.89 H 123.63 L 123.43,133.67 C 123.32,133.55 123.16,133.35 123.06,133.22 122.97,133.1 122.78,132.84 122.65,132.64 122.52,132.44 122.32,132.09 122.21,131.87 122.09,131.65 121.95,131.33 121.88,131.16 121.81,131 121.72,130.73 121.67,130.58 121.62,130.42 121.55,130.17 121.51,130.01 121.47,129.84 121.42,129.58 121.39,129.42 121.36,129.26 121.32,129.02 121.31,128.89 121.28,128.71 121.28,122.59 121.27,100.62 L 121.25,72.584 121.2,72.291 C 121.17,72.13 121.12,71.895 121.08,71.768 121.05,71.64 120.98,71.42 120.94,71.279 120.89,71.138 120.77,70.859 120.67,70.658 120.57,70.457 120.41,70.176 120.32,70.035 120.23,69.894 120.06,69.67 119.96,69.535 119.85,69.4 119.63,69.163 119.46,69.008 119.3,68.853 119.07,68.649 118.95,68.555 118.82,68.46 118.62,68.321 118.5,68.244 118.38,68.168 118.13,68.034 117.96,67.947 117.78,67.861 117.47,67.735 117.27,67.668 117.07,67.601 116.8,67.523 116.68,67.496 116.55,67.469 116.34,67.432 116.21,67.412 116.07,67.392 115.76,67.372 115.52,67.365 Z M 98.762,81.553 V 81.555 C 113.64,81.553 116.03,81.556 116.14,81.586 116.21,81.605 116.33,81.651 116.4,81.688 116.48,81.724 116.61,81.823 116.7,81.908 116.81,82.011 116.9,82.12 116.96,82.23 117,82.322 117.06,82.469 117.08,82.555 117.1,82.641 117.12,82.777 117.12,82.857 117.12,82.938 117.1,83.072 117.08,83.158 117.06,83.244 117.01,83.388 116.96,83.477 116.91,83.565 116.82,83.691 116.76,83.756 116.7,83.821 116.58,83.918 116.5,83.971 116.42,84.023 116.27,84.09 116.18,84.119 L 116.01,84.174 H 81.541 L 81.369,84.119 C 81.275,84.09 81.131,84.023 81.051,83.971 80.971,83.919 80.85,83.816 80.781,83.742 80.712,83.668 80.62,83.539 80.578,83.457 80.537,83.375 80.487,83.24 80.467,83.156 80.446,83.072 80.432,82.936 80.432,82.855 80.432,82.775 80.447,82.641 80.467,82.557 80.487,82.473 80.538,82.336 80.58,82.252 80.628,82.157 80.722,82.035 80.83,81.928 80.934,81.824 81.059,81.728 81.143,81.688 81.219,81.651 81.334,81.606 81.398,81.588 81.495,81.562 84.545,81.554 98.762,81.553 Z M 98.834,93.391 116.06,93.395 116.22,93.451 C 116.3,93.483 116.45,93.557 116.54,93.617 116.63,93.677 116.74,93.777 116.79,93.84 116.85,93.903 116.91,93.994 116.94,94.043 116.97,94.092 117.02,94.197 117.05,94.275 117.07,94.354 117.1,94.502 117.11,94.605 117.12,94.717 117.11,94.856 117.09,94.947 117.08,95.032 117.02,95.182 116.98,95.283 116.91,95.413 116.84,95.515 116.73,95.629 116.63,95.725 116.51,95.822 116.42,95.867 116.33,95.909 116.2,95.959 116.11,95.979 115.98,96.009 113.84,96.016 98.773,96.016 83.531,96.016 81.572,96.011 81.434,95.979 81.348,95.958 81.209,95.906 81.127,95.863 81.045,95.82 80.907,95.715 80.818,95.627 80.703,95.513 80.633,95.416 80.57,95.285 80.522,95.184 80.47,95.032 80.453,94.947 80.435,94.856 80.431,94.717 80.439,94.605 80.447,94.503 80.475,94.356 80.502,94.279 80.528,94.203 80.58,94.088 80.617,94.023 80.655,93.959 80.746,93.846 80.82,93.771 80.896,93.696 81.034,93.597 81.133,93.545 81.23,93.494 81.379,93.436 81.463,93.418 81.59,93.39 84.427,93.387 98.834,93.391 Z M 98.76,105.24 H 98.762 C 113.84,105.24 115.98,105.24 116.11,105.27 116.19,105.29 116.33,105.34 116.41,105.39 116.5,105.43 116.63,105.53 116.73,105.62 116.84,105.74 116.91,105.84 116.98,105.97 117.02,106.07 117.08,106.22 117.09,106.3 117.11,106.4 117.12,106.54 117.11,106.65 117.1,106.75 117.07,106.9 117.05,106.97 117.02,107.05 116.97,107.16 116.93,107.23 116.89,107.29 116.8,107.41 116.73,107.48 116.65,107.56 116.51,107.66 116.42,107.71 116.32,107.76 116.17,107.82 116.08,107.84 115.93,107.87 113.55,107.87 98.773,107.87 83.996,107.87 81.615,107.87 81.473,107.84 81.382,107.82 81.23,107.76 81.133,107.71 81.034,107.66 80.895,107.56 80.82,107.48 80.746,107.41 80.655,107.29 80.617,107.23 80.58,107.16 80.528,107.05 80.502,106.97 80.475,106.9 80.447,106.75 80.439,106.65 80.431,106.54 80.436,106.4 80.453,106.3 80.47,106.22 80.522,106.07 80.57,105.97 80.633,105.84 80.703,105.74 80.818,105.63 80.907,105.54 81.047,105.43 81.129,105.39 81.211,105.35 81.343,105.29 81.422,105.28 81.545,105.24 83.997,105.24 98.76,105.24 Z M 104.3,117.08 H 116.03 L 116.17,117.13 C 116.24,117.15 116.37,117.21 116.45,117.25 116.53,117.3 116.66,117.4 116.74,117.48 116.83,117.57 116.91,117.69 116.97,117.81 117.03,117.92 117.08,118.07 117.09,118.14 117.1,118.21 117.12,118.33 117.12,118.41 117.12,118.48 117.1,118.62 117.08,118.7 117.06,118.79 117,118.93 116.96,119.02 116.9,119.13 116.81,119.24 116.7,119.35 116.6,119.44 116.47,119.53 116.38,119.58 116.3,119.62 116.18,119.66 116.12,119.68 116.04,119.7 112.21,119.7 104.19,119.7 H 92.369 L 92.207,119.66 C 92.117,119.63 91.982,119.58 91.906,119.53 91.831,119.49 91.721,119.4 91.662,119.35 91.604,119.29 91.518,119.18 91.471,119.11 91.423,119.04 91.36,118.92 91.33,118.84 91.285,118.72 91.276,118.64 91.275,118.4 91.275,118.16 91.283,118.08 91.328,117.96 91.358,117.88 91.421,117.76 91.469,117.69 91.516,117.61 91.607,117.5 91.67,117.44 91.733,117.38 91.831,117.31 91.889,117.27 91.946,117.24 92.051,117.19 92.121,117.16 92.191,117.14 92.319,117.1 92.406,117.09 92.494,117.08 97.846,117.07 104.3,117.08 Z M 124.07,129.33 124.08,129.41 C 124.09,129.46 124.14,129.61 124.18,129.76 124.23,129.91 124.31,130.15 124.38,130.3 124.44,130.45 124.54,130.66 124.6,130.77 124.66,130.89 124.77,131.07 124.85,131.19 124.92,131.3 125.04,131.47 125.12,131.58 125.2,131.68 125.35,131.86 125.45,131.97 125.56,132.09 125.74,132.27 125.85,132.38 125.97,132.48 126.16,132.63 126.28,132.72 126.4,132.82 126.6,132.95 126.73,133.03 126.85,133.11 127.1,133.24 127.28,133.32 127.46,133.41 127.75,133.53 127.93,133.59 128.11,133.65 128.43,133.73 128.62,133.77 128.82,133.81 129.14,133.86 129.33,133.87 129.53,133.89 129.81,133.9 130.01,133.89 130.2,133.88 130.47,133.85 130.61,133.83 130.75,133.81 130.99,133.77 131.13,133.73 131.28,133.7 131.53,133.63 131.68,133.57 131.83,133.52 132.07,133.43 132.2,133.37 132.33,133.31 132.53,133.21 132.64,133.15 132.75,133.09 132.92,132.98 133.02,132.91 133.12,132.85 133.31,132.71 133.44,132.61 133.57,132.51 133.79,132.31 133.93,132.17 134.07,132.02 134.25,131.82 134.34,131.72 134.42,131.61 134.58,131.4 134.68,131.25 134.78,131.1 134.94,130.82 135.03,130.62 135.13,130.43 135.25,130.16 135.3,130.02 135.35,129.88 135.42,129.66 135.45,129.55 L 135.51,129.33 H 129.79 Z"
         fill="#000000" />
    </g>
  </g>
</svg>
